<?xml version="1.0" encoding="utf-8"?>
<!-- Generator: Adobe Illustrator 26.0.3, SVG Export Plug-In . SVG Version: 6.00 Build 0)  -->
<svg version="1.1" xmlns="http://www.w3.org/2000/svg" xmlns:xlink="http://www.w3.org/1999/xlink" x="0px" y="0px"
	 viewBox="0 0 360 360" style="enable-background:new 0 0 360 360;" xml:space="preserve">
<style type="text/css">
	.st0{display:none;}
	.st1{display:inline;}
	.st2{fill:#FFFFFF;}
	.st3{fill:#1D1D1B;}
	.st4{fill:#0090C1;}
	.st5{fill:#B63A3A;}
	.st6{fill:#020202;}
	.st7{fill-rule:evenodd;clip-rule:evenodd;fill:#B63A3A;}
	.st8{fill-rule:evenodd;clip-rule:evenodd;fill:#0090C1;}
	.st9{fill-rule:evenodd;clip-rule:evenodd;fill:#B2B2B2;}
	.st10{fill:#191919;}
	.st11{fill-rule:evenodd;clip-rule:evenodd;fill:#191919;}
	.st12{fill:#48AF54;}
</style>
<g id="Capa_2">
	<g class="st0">
		<g class="st1">
			<rect x="144.39" y="190.38" class="st2" width="69.62" height="11.5"/>
			<path d="M214.25,202.06h-70.09V190.2h70.09V202.06z M144.62,201.71h69.15v-11.15h-69.15V201.71z"/>
		</g>
		<g class="st1">
			<rect x="155.81" y="181.65" class="st2" width="58.2" height="8.73"/>
			<path class="st3" d="M214.25,190.56h-58.67v-9.09h58.67V190.56z M156.04,190.2h57.73v-8.38h-57.73V190.2z"/>
		</g>
		<g class="st1">
			<rect x="168.78" y="175.55" class="st2" width="45.24" height="6.1"/>
			<path class="st3" d="M214.25,181.83h-45.71v-6.45h45.71V181.83z M169.01,181.47h44.76v-5.74h-44.76V181.47z"/>
		</g>
		<g class="st1">
			<rect x="159.34" y="145.21" class="st2" width="49.24" height="13.71"/>
			<path class="st3" d="M208.82,159.06h-49.71v-13.99h49.71V159.06z M159.58,158.78h48.77v-13.43h-48.77V158.78z"/>
		</g>
		<g class="st1">
			<polygon class="st2" points="206.58,137.31 159.31,137.31 166.67,121.05 199.21,121.05 			"/>
			<path class="st3" d="M206.98,137.6h-48.07l7.62-16.82h32.82L206.98,137.6z M159.7,137.03h46.48l-7.11-15.7h-32.26L159.7,137.03z"
				/>
		</g>
		<g class="st1">
			<rect x="153.54" y="137.2" class="st2" width="60.48" height="8.03"/>
			<path class="st3" d="M214.25,145.39H153.3v-8.36h60.95V145.39z M153.77,145.06h60v-7.7h-60V145.06z"/>
		</g>
		<polygon class="st1" points="200.03,147.17 200.03,159.06 193.93,159.06 193.93,175.55 185.01,175.55 185.01,159.06 
			169.97,159.06 169.97,147.17 		"/>
		<g class="st1">
			<rect x="166.67" y="113.83" width="6.59" height="7.11"/>
			<rect x="192.6" y="113.83" width="6.59" height="7.11"/>
			<rect x="174.99" y="113.83" width="6.59" height="7.11"/>
			<rect x="183.8" y="113.83" width="6.59" height="7.11"/>
		</g>
		<rect x="144.39" y="198.1" class="st1" width="69.62" height="3.79"/>
		<g class="st1">
			<g>
				<polygon class="st4" points="186.76,137.21 180.38,129.1 186.77,120.95 188.45,120.95 182.11,129.1 188.45,137.2 				"/>
			</g>
			<g>
				<polygon class="st5" points="179.16,137.23 177.44,137.23 183.8,129.1 177.44,120.95 179.15,120.95 185.53,129.1 				"/>
			</g>
		</g>
		<g class="st1">
			<rect x="193.55" y="158.96" class="st2" width="15.07" height="16.57"/>
			<path class="st3" d="M208.82,175.73h-15.47v-16.98h15.47V175.73z M193.75,175.32h14.67v-16.16h-14.67V175.32z"/>
		</g>
	</g>
	<g>
		<path class="st6" d="M67.89,333.72v-26.29h-3.67v-4.4H76.3v4.4H72.3v26.29H67.89z"/>
		<path class="st6" d="M94.8,303.19c3.23,0,5.91,1.2,8.02,3.61c2.41,2.78,3.61,6.76,3.61,11.94c0,4.83-1.09,8.56-3.27,11.18
			c-2.07,2.53-4.86,3.8-8.36,3.8h-1.77c-3.25,0-5.92-1.22-8.02-3.67c-2.41-2.76-3.61-6.74-3.61-11.94c0-4.82,1.09-8.54,3.27-11.18
			c2.09-2.5,4.88-3.74,8.36-3.74H94.8z M94.8,329.32c2.25,0,3.99-0.85,5.22-2.56c1.34-1.85,2-4.52,2-8.02
			c0-3.59-0.69-6.38-2.06-8.38c-1.27-1.86-2.99-2.79-5.17-2.79h-1.77c-2.27,0-4.02,0.85-5.25,2.56c-1.34,1.85-2,4.51-2,7.99
			c0,3.59,0.69,6.4,2.08,8.44c1.27,1.85,2.99,2.77,5.17,2.77H94.8z"/>
		<path class="st6" d="M115.93,333.64h-4.4v-28.11c0.04-0.35,0.1-0.64,0.18-0.87c0.25-0.88,0.78-1.42,1.61-1.61
			c0.18-0.07,0.4-0.11,0.66-0.11c0.65,0,1.25,0.27,1.79,0.82c0.16,0.21,0.3,0.42,0.42,0.63l0.24,0.37l0.08,0.13l9.68,18.48v-20.36
			h4.4v28c0,0.3-0.04,0.59-0.11,0.87c-0.26,0.95-0.81,1.52-1.63,1.71c-0.21,0.07-0.43,0.11-0.66,0.11c-0.76,0-1.38-0.32-1.87-0.95
			c-0.16-0.16-0.3-0.34-0.42-0.55l-0.11-0.16l-0.11-0.13l-9.76-18.64V333.64z"/>
		<path class="st6" d="M140.09,333.72h-4.4v-14.9c0-4.66,0.96-8.41,2.87-11.26c2-2.99,4.72-4.48,8.15-4.48
			c3.41,0,6.13,1.49,8.17,4.48c1.92,2.85,2.87,6.6,2.87,11.26v14.9h-4.4v-4.38h-13.26V333.72z M146.71,307.43
			c-2.15,0-3.81,1.15-4.98,3.45c-1.09,2.11-1.63,4.75-1.63,7.94v6.12h13.26v-6.12c0-3.18-0.54-5.83-1.63-7.94
			C150.54,308.58,148.87,307.43,146.71,307.43z"/>
		<path class="st6" d="M167.26,303v15.66c0,3.6,0.76,6.36,2.27,8.28c1.28,1.6,2.94,2.4,4.96,2.4h4.88v4.38h-4.88
			c-3.43,0-6.22-1.36-8.38-4.09c-2.16-2.69-3.24-6.35-3.24-10.97V303H167.26z"/>
		<path class="st6" d="M188.86,327.18v6.54h-4.4v-30.64h4.4v14.82l9.57-10.65c0.11-0.12,0.16-0.26,0.16-0.42v-3.74h4.4v3.74
			c0,1.27-0.43,2.37-1.29,3.32l-11.5,12.79l9.99,4.96c0.86,0.42,1.54,1.03,2.03,1.82c0.51,0.83,0.76,2.16,0.76,4.01h-4.4
			c0-1.16-0.11-1.79-0.34-1.9L188.86,327.18z"/>
		<path class="st6" d="M212.49,333.72h-4.4v-14.9c0-4.66,0.96-8.41,2.87-11.26c2-2.99,4.72-4.48,8.15-4.48
			c3.41,0,6.13,1.49,8.17,4.48c1.92,2.85,2.87,6.6,2.87,11.26v14.9h-4.4v-4.38h-13.26V333.72z M219.11,307.43
			c-2.14,0-3.81,1.15-4.98,3.45c-1.09,2.11-1.63,4.75-1.63,7.94v6.12h13.26v-6.12c0-3.18-0.54-5.83-1.63-7.94
			C222.94,308.58,221.27,307.43,219.11,307.43z"/>
		<path class="st6" d="M239.66,303v15.66c0,3.6,0.76,6.36,2.27,8.28c1.28,1.6,2.94,2.4,4.96,2.4h4.88v4.38h-4.88
			c-3.43,0-6.22-1.36-8.38-4.09c-2.16-2.69-3.24-6.35-3.24-10.97V303H239.66z"/>
		<path class="st6" d="M261.27,303v15.66c0,3.6,0.76,6.36,2.27,8.28c1.28,1.6,2.94,2.4,4.96,2.4h4.88v4.38h-4.88
			c-3.43,0-6.22-1.36-8.38-4.09c-2.16-2.69-3.24-6.35-3.24-10.97V303H261.27z"/>
		<path class="st6" d="M286.69,307.48v21.83h3.85v4.4h-12.08v-4.4h3.82v-21.83h-3.67v-4.38h12.05v4.38H286.69z"/>
	</g>
	<g>
		<g>
			<path class="st7" d="M153.8,225.71c-16.67-6.73-30.06-19.88-37.09-36.38l-13.08,5.57c8.51,19.96,24.7,35.86,44.86,44
				L153.8,225.71L153.8,225.71z M112.91,194.14c2.43,0,4.4,1.97,4.4,4.4s-1.97,4.4-4.4,4.4s-4.4-1.97-4.4-4.4
				S110.48,194.14,112.91,194.14L112.91,194.14z M114.34,207.65c0-2.43,1.97-4.4,4.4-4.4s4.4,1.97,4.4,4.4c0,2.43-1.97,4.4-4.4,4.4
				S114.34,210.08,114.34,207.65L114.34,207.65z M121.61,215.84c0-2.43,1.97-4.4,4.4-4.4c2.43,0,4.4,1.97,4.4,4.4
				c0,2.43-1.97,4.4-4.4,4.4C123.58,220.24,121.61,218.27,121.61,215.84L121.61,215.84z M130,222.8c0-2.43,1.97-4.4,4.4-4.4
				s4.4,1.97,4.4,4.4c0,2.43-1.97,4.4-4.4,4.4S130,225.23,130,222.8L130,222.8z M143.98,233.7c-2.43,0-4.4-1.97-4.4-4.4
				c0-2.43,1.97-4.4,4.4-4.4c2.43,0,4.4,1.97,4.4,4.4C148.38,231.73,146.41,233.7,143.98,233.7z"/>
			<path class="st7" d="M168.02,254.72c-18.44-2.22-35.22-9.85-48.69-21.26l-2.84,1.79c0.5,0.43,1,0.86,1.51,1.28l-6.06,7.65
				c-1.37-1.13-2.72-2.3-4.03-3.51l-1.94,1.22c1.49,1.38,3.02,2.72,4.59,4.02c1.09,0.9,2.2,1.78,3.32,2.64
				c0.8,0.61,1.6,1.2,2.42,1.79c1.15,0.82,2.31,1.63,3.49,2.41c0.94,0.62,1.9,1.23,2.86,1.83c1.2,0.74,2.42,1.46,3.65,2.15
				c1.27,0.72,2.56,1.41,3.87,2.08c-1.04,1.23-1.78,2.74-2.07,4.44c-0.84,5.02,2.54,9.77,7.56,10.62c5.02,0.84,9.77-2.54,10.62-7.56
				c0.05-0.27,0.08-0.55,0.1-0.82c1.3,0.42,2.62,0.81,3.94,1.17c1.36,0.38,2.73,0.73,4.11,1.05c0.97,0.23,1.95,0.44,2.94,0.65
				c1.38,0.28,2.77,0.54,4.17,0.77c1.11,0.18,2.23,0.35,3.36,0.5c1.4,0.18,2.8,0.34,4.21,0.47c1.13,0.1,2.27,0.19,3.41,0.26
				l-0.65-2.26c-0.84-0.06-1.67-0.12-2.51-0.2l0.69-6.08L168.02,254.72L168.02,254.72z M121.32,239.17
				c0.59,0.44,1.18,0.88,1.77,1.31l-5.53,8.04c-0.77-0.56-1.54-1.12-2.3-1.7L121.32,239.17L121.32,239.17z M121.05,250.93l5.53-8.04
				c0.71,0.47,1.42,0.92,2.15,1.37l-4.95,8.41C122.86,252.1,121.95,251.52,121.05,250.93L121.05,250.93z M129.61,251.13
				c2.98,1.68,6.06,3.21,9.22,4.58l-0.1-0.02c-2.48-0.42-4.89,0.2-6.8,1.53c-1.52-0.76-3.02-1.56-4.5-2.39L129.61,251.13
				L129.61,251.13z M132.38,246.41c6.54,3.67,13.55,6.59,20.93,8.65l-0.83,3.23c-7.68-2.14-14.98-5.18-21.79-9.01L132.38,246.41
				L132.38,246.41z M137.91,260.6c2.31,0.39,3.87,2.57,3.48,4.88c-0.39,2.31-2.57,3.87-4.88,3.48c-2.31-0.39-3.87-2.57-3.48-4.88
				C133.41,261.77,135.6,260.21,137.91,260.6L137.91,260.6z M142.45,257.2c3.1,1.21,6.27,2.26,9.5,3.16l-1.07,4.16
				c-1.55-0.43-3.09-0.9-4.61-1.39C145.83,260.72,144.44,258.58,142.45,257.2L142.45,257.2z M154.99,265.57l2.43-9.45
				c0.71,0.17,1.43,0.32,2.15,0.47l-1.79,9.6C156.85,265.99,155.92,265.79,154.99,265.57L154.99,265.57z M161.96,266.96l1.79-9.6
				c0.84,0.14,1.68,0.26,2.52,0.37l-1.1,9.7C164.09,267.29,163.02,267.13,161.96,266.96z"/>
			<path class="st7" d="M191.6,250.55l0.59-2.05c0,0,8.67-0.97,19.91-5.49c6.5-2.61,14.71-7.04,22.03-13.15l1.62,1.18
				c0,0-1.04,0.89-2.94,2.34c-3.12,2.37-8.6,6.19-15.95,9.66C209.93,246.31,201.35,249.28,191.6,250.55z"/>
			<path class="st7" d="M113.92,216.33c0,0,2.35,2.82,3.95,4.45l-4.99,7.89l7.89-4.99c0,0,3.08,2.93,4.45,3.95l-25.37,16.04
				c0,0-1.55-0.32-1.98-1.98L113.92,216.33z"/>
			<path class="st7" d="M166.45,250.55l-0.59-2.05c0,0-8.67-0.97-19.91-5.49c-6.5-2.61-14.71-7.04-22.03-13.15l-1.62,1.18
				c0,0,1.04,0.89,2.94,2.34c3.12,2.37,8.6,6.19,15.95,9.66C148.11,246.31,156.7,249.28,166.45,250.55z"/>
			<path class="st7" d="M239.07,233.46c-13.47,11.41-30.24,19.04-48.68,21.26l-2.13,7.38l0.66,5.82c-0.79,0.07-1.59,0.14-2.39,0.19
				l-0.65,2.26c1.1-0.07,2.2-0.15,3.29-0.25c1.41-0.13,2.82-0.29,4.21-0.47c1-0.13,1.99-0.28,2.98-0.43
				c1.4-0.22,2.79-0.47,4.17-0.75c1.11-0.22,2.22-0.46,3.32-0.72c1.38-0.32,2.75-0.67,4.11-1.05c0.81-0.22,1.61-0.45,2.41-0.69
				l0.03,0.2c0.75,5.03,5.44,8.51,10.48,7.76c5.04-0.75,8.51-5.44,7.76-10.48c-0.23-1.51-0.81-2.89-1.65-4.05
				c1.1-0.55,2.2-1.11,3.28-1.69c1.25-0.67,2.48-1.37,3.69-2.08c0.86-0.51,1.72-1.03,2.57-1.57c1.2-0.75,2.38-1.53,3.54-2.33
				c0.93-0.64,1.86-1.29,2.77-1.96c1.14-0.84,2.27-1.69,3.37-2.57c2.14-1.7,4.21-3.48,6.22-5.33l-1.59-1l-0.35-0.22
				c-1.82,1.66-3.69,3.26-5.62,4.79l-5.91-7.76c1-0.8,1.98-1.62,2.95-2.45L239.07,233.46L239.07,233.46z M204.99,255.09
				c6.8-1.89,13.29-4.52,19.39-7.78l1.63,2.9c-6.35,3.41-13.12,6.14-20.2,8.11L204.99,255.09L204.99,255.09z M200.88,256.14
				l2.42,9.46c-1.05,0.24-2.1,0.47-3.16,0.69l-1.74-9.6C199.23,256.51,200.06,256.33,200.88,256.14L200.88,256.14z M194.22,257.43
				l1.74,9.6c-0.94,0.15-1.88,0.29-2.83,0.41l-1.09-9.7C192.77,257.65,193.5,257.54,194.22,257.43L194.22,257.43z M215.32,265.46
				c-0.35-2.32,1.25-4.47,3.57-4.82c2.32-0.35,4.47,1.25,4.82,3.57c0.35,2.32-1.25,4.47-3.57,4.82
				C217.82,269.37,215.66,267.78,215.32,265.46L215.32,265.46z M219.77,255.62c2.49-1.09,4.92-2.27,7.3-3.55l2.11,3.74
				c-1.24,0.67-2.5,1.31-3.78,1.93C223.84,256.45,221.87,255.68,219.77,255.62L219.77,255.62z M206.35,260.39
				c2.26-0.63,4.48-1.33,6.68-2.1c-1.45,1.43-2.4,3.33-2.66,5.4c-0.98,0.3-1.96,0.59-2.95,0.86L206.35,260.39L206.35,260.39z
				 M232.87,253.73l-4.79-8.51c0.63-0.38,1.26-0.76,1.88-1.15l5.35,8.16C234.5,252.75,233.69,253.24,232.87,253.73L232.87,253.73z
				 M238.86,249.91l-5.35-8.16c0.7-0.48,1.39-0.97,2.08-1.47l5.91,7.77C240.63,248.68,239.75,249.3,238.86,249.91z"/>
		</g>
		<g>
			<path class="st8" d="M244.12,216.33c0,0-2.35,2.82-3.95,4.45l4.99,7.89l-7.89-4.99c0,0-3.08,2.93-4.45,3.95l25.37,16.04
				c0,0,1.55-0.32,1.98-1.98L244.12,216.33z"/>
			<g>
				<path class="st8" d="M267.04,175.11c0,0-0.41,4.73-2.56,12.07c-0.97,3.31-2.27,7.18-4.09,11.3
					c-2.86,6.49-6.95,13.65-12.78,20.69l-1.12-1.7c0,0,15.19-17.09,18.5-41.77L267.04,175.11z"/>
				<path class="st4" d="M243.71,183.98l-0.75,2.14l17.7,6.5c0,0,0.68-1.43,0.95-2.73L243.71,183.98z"/>
			</g>
			<g>
				<path class="st8" d="M267.01,150.31c0,0-0.41-4.73-2.56-12.07c-0.97-3.31-2.27-7.18-4.09-11.3
					c-2.86-6.49-6.95-13.65-12.78-20.69l-1.12,1.7c0,0,15.19,17.09,18.5,41.77L267.01,150.31z"/>
				<path class="st4" d="M243.69,141.43l-0.75-2.14l17.77-6.52c0,0,0.68,1.46,0.95,2.76L243.69,141.43z"/>
			</g>
			<path class="st8" d="M242.11,188.32c-6.93,17.01-20.57,30.58-37.62,37.43l5.29,13.2c20.63-8.28,37.12-24.69,45.5-45.27
				L242.11,188.32L242.11,188.32z M223.82,227.2c-2.43,0-4.4-1.97-4.4-4.4c0-2.43,1.97-4.4,4.4-4.4c2.43,0,4.4,1.97,4.4,4.4
				C228.22,225.23,226.25,227.2,223.82,227.2L223.82,227.2z M232.21,220.24c-2.43,0-4.4-1.97-4.4-4.4c0-2.43,1.97-4.4,4.4-4.4
				c2.43,0,4.4,1.97,4.4,4.4C236.61,218.27,234.64,220.24,232.21,220.24L232.21,220.24z M243.88,207.65c0,2.43-1.97,4.4-4.4,4.4
				s-4.4-1.97-4.4-4.4c0-2.43,1.97-4.4,4.4-4.4S243.88,205.22,243.88,207.65L243.88,207.65z M249.72,198.54c0,2.43-1.97,4.4-4.4,4.4
				s-4.4-1.97-4.4-4.4s1.97-4.4,4.4-4.4S249.72,196.11,249.72,198.54L249.72,198.54z M214.25,224.9c2.43,0,4.4,1.97,4.4,4.4
				c0,2.43-1.97,4.4-4.4,4.4c-2.43,0-4.4-1.97-4.4-4.4C209.84,226.87,211.82,224.9,214.25,224.9z"/>
			<path class="st4" d="M282.43,195.52c-0.15-0.03-0.29-0.05-0.44-0.06c0.15-0.46,0.29-0.92,0.43-1.39c0.41-1.35,0.8-2.71,1.16-4.08
				c0.25-0.97,0.49-1.94,0.71-2.92c0.32-1.37,0.61-2.76,0.88-4.15c0.21-1.11,0.4-2.22,0.58-3.35c0.21-1.39,0.41-2.79,0.57-4.2
				c0.23-1.98,0.41-3.97,0.53-5.99l-2.26,0.66c-0.11,1.69-0.27,3.36-0.46,5.03l-9.67-1.34l0.09-0.79l-3.34,0.96
				c-0.74,6.15-2.08,12.12-3.97,17.85l-1.01,2.91c-3.78,10.29-9.33,19.72-16.29,27.93l1.8,2.83c0.99-1.14,1.95-2.31,2.89-3.51
				l7.81,5.86c-1.68,2.14-3.44,4.22-5.28,6.23l0.22,0.35l1,1.59c2.04-2.2,3.98-4.48,5.83-6.85c0.87-1.11,1.72-2.24,2.55-3.39
				c0.58-0.81,1.16-1.63,1.72-2.46c0.8-1.17,1.57-2.36,2.32-3.56c0.6-0.96,1.18-1.93,1.75-2.9c0.71-1.23,1.39-2.46,2.05-3.71
				l0.64-1.24c1.21,0.97,2.67,1.64,4.3,1.89c5.03,0.8,9.75-2.63,10.55-7.66C290.89,201.04,287.46,196.31,282.43,195.52z
				 M273.89,177.94l9.66,1.33c-0.16,1.07-0.35,2.13-0.55,3.19l-9.55-2.02C273.61,179.61,273.75,178.78,273.89,177.94z
				 M272.58,184.59l9.55,2.02c-0.22,0.93-0.44,1.86-0.68,2.78l-9.4-2.65C272.24,186.03,272.41,185.31,272.58,184.59z M270.9,190.82
				l3.21,0.9c-1.83,5.98-4.2,11.72-7.07,17.16l-2.91-1.61C266.87,202.05,269.15,196.55,270.9,190.82z M264.99,224.38l-7.81-5.86
				c0.43-0.6,0.85-1.2,1.26-1.8l8.19,5.31C266.09,222.82,265.54,223.6,264.99,224.38z M268.94,218.48l-8.18-5.32
				c0.44-0.72,0.88-1.45,1.31-2.18l8.54,4.72C270.07,216.64,269.51,217.56,268.94,218.48z M272.67,212l-3.76-2.08
				c1.02-1.94,1.98-3.91,2.88-5.92c-0.16,2.27,0.54,4.44,1.83,6.16C273.3,210.77,272.99,211.39,272.67,212z M274.03,198.58
				c0.77-2.06,1.49-4.15,2.14-6.28l4.13,1.17c-0.21,0.68-0.42,1.35-0.64,2.03C277.45,195.82,275.46,196.93,274.03,198.58z
				 M285.17,205.28c-0.36,2.32-2.53,3.89-4.85,3.53c-2.31-0.37-3.89-2.54-3.52-4.85c0.37-2.32,2.54-3.89,4.85-3.53
				C283.96,200.8,285.54,202.97,285.17,205.28z"/>
			<path class="st8" d="M290.14,119.17c-0.8-5.03-5.52-8.46-10.55-7.66c-1.68,0.26-3.17,0.96-4.4,1.97
				c-0.31-0.62-0.63-1.23-0.96-1.83c-0.67-1.25-1.37-2.48-2.09-3.7c-0.51-0.86-1.03-1.72-1.56-2.57c-0.75-1.19-1.53-2.38-2.33-3.54
				c-0.64-0.94-1.29-1.86-1.96-2.77c-0.83-1.14-1.69-2.27-2.57-3.37c-1.7-2.14-3.48-4.22-5.33-6.22l-1,1.59l-0.22,0.35
				c1.66,1.81,3.26,3.69,4.79,5.62l-7.77,5.91c-0.79-1-1.61-1.99-2.45-2.95l-1.79,2.83c6.75,7.97,12.17,17.09,15.94,27.02l1.04,2.9
				c2.05,6.01,3.5,12.29,4.28,18.78l3.34,0.96l-0.08-0.76l9.67-1.33c0.19,1.65,0.34,3.31,0.46,4.99l2.25,0.65
				c-0.12-2-0.29-3.98-0.52-5.95c-0.17-1.4-0.36-2.81-0.58-4.2c-0.15-0.99-0.32-1.98-0.5-2.96c-0.26-1.4-0.55-2.78-0.86-4.16
				c-0.25-1.1-0.52-2.2-0.8-3.3c-0.36-1.37-0.74-2.73-1.15-4.08c-0.16-0.54-0.33-1.07-0.5-1.6c0.18-0.02,0.36-0.05,0.53-0.07
				C287.5,128.92,290.93,124.2,290.14,119.17z M279.59,129.72c0.25,0.75,0.49,1.51,0.72,2.27l-4.13,1.17
				c-0.7-2.29-1.47-4.54-2.32-6.75C275.28,128.16,277.32,129.36,279.59,129.72z M272.3,112.73c0.44,0.81,0.86,1.63,1.28,2.46
				c-1.3,1.79-1.97,4.04-1.72,6.39c-1.02-2.29-2.12-4.54-3.3-6.74L272.3,112.73z M256.76,106.32l7.77-5.91
				c0.64,0.87,1.26,1.75,1.87,2.64l-8.16,5.35C257.75,107.7,257.26,107.01,256.76,106.32z M260.56,111.94l8.17-5.34
				c0.5,0.8,1,1.62,1.49,2.44l-8.51,4.79C261.34,113.19,260.95,112.57,260.56,111.94z M270.92,134.64
				c-1.83-5.97-4.23-11.7-7.13-17.12l2.91-1.63c3.03,5.64,5.52,11.61,7.42,17.85L270.92,134.64z M283.08,143.37
				c0.17,0.94,0.33,1.88,0.48,2.82l-9.67,1.34c-0.11-0.73-0.24-1.46-0.37-2.18L283.08,143.37z M282.22,139.22l-9.55,1.98
				c-0.19-0.83-0.39-1.66-0.61-2.48l9.4-2.65C281.73,137.12,281.98,138.17,282.22,139.22z M281.69,124.8
				c-2.31,0.37-4.48-1.21-4.85-3.52c-0.36-2.32,1.21-4.49,3.53-4.85c2.31-0.37,4.48,1.2,4.85,3.52
				C285.58,122.26,284.01,124.43,281.69,124.8z"/>
		</g>
		<g>
			<path class="st9" d="M244.1,109.08c0,0-2.35-2.82-3.95-4.45l4.99-7.89l-7.89,4.99c0,0-3.08-2.93-4.45-3.95l25.37-16.04
				c0,0,1.55,0.32,1.98,1.98L244.1,109.08z"/>
			<path class="st9" d="M191.57,74.87l0.59,2.05c0,0,8.67,0.97,19.91,5.49c6.5,2.61,14.71,7.04,22.03,13.15l1.62-1.18
				c0,0-1.04-0.89-2.94-2.34c-3.12-2.37-8.6-6.19-15.95-9.66C209.91,79.11,201.32,76.14,191.57,74.87z"/>
			<path class="st9" d="M166.45,74.87l-0.59,2.05c0,0-8.67,0.97-19.91,5.49c-6.5,2.61-14.71,7.04-22.03,13.15l-1.62-1.18
				c0,0,1.04-0.89,2.94-2.34c3.12-2.37,8.6-6.19,15.95-9.66C148.11,79.11,156.7,76.14,166.45,74.87z"/>
			<path class="st9" d="M209.91,86.52l-5.32,13.19c16.67,6.73,30.06,19.88,37.09,36.38l13.08-5.57
				C246.26,110.56,230.07,94.66,209.91,86.52L209.91,86.52z M214.25,91.93c2.43,0,4.4,1.97,4.4,4.4c0,2.43-1.97,4.4-4.4,4.4
				c-2.43,0-4.4-1.97-4.4-4.4C209.84,93.9,211.82,91.93,214.25,91.93L214.25,91.93z M219.42,102.83c0-2.43,1.97-4.4,4.4-4.4
				c2.43,0,4.4,1.97,4.4,4.4c0,2.43-1.97,4.4-4.4,4.4C221.39,107.23,219.42,105.26,219.42,102.83L219.42,102.83z M232.21,105.39
				c2.43,0,4.4,1.97,4.4,4.4c0,2.43-1.97,4.4-4.4,4.4c-2.43,0-4.4-1.97-4.4-4.4C227.81,107.36,229.78,105.39,232.21,105.39
				L232.21,105.39z M239.48,113.58c2.43,0,4.4,1.97,4.4,4.4s-1.97,4.4-4.4,4.4s-4.4-1.97-4.4-4.4S237.05,113.58,239.48,113.58
				L239.48,113.58z M245.31,122.69c2.43,0,4.4,1.97,4.4,4.4c0,2.43-1.97,4.4-4.4,4.4s-4.4-1.97-4.4-4.4
				C240.91,124.66,242.88,122.69,245.31,122.69z"/>
			<path class="st9" d="M190.39,70.7c18.44,2.22,35.22,9.86,48.69,21.27l2.84-1.79c-1.15-0.99-2.32-1.96-3.51-2.9l5.85-7.81
				c2.15,1.68,4.23,3.44,6.24,5.28l0.35-0.22l1.59-1c-2.2-2.04-4.48-3.98-6.85-5.83c-1.11-0.87-2.24-1.72-3.39-2.55
				c-0.81-0.59-1.64-1.16-2.47-1.73c-1.17-0.79-2.35-1.57-3.55-2.31c-0.96-0.6-1.93-1.18-2.91-1.75c-1.22-0.71-2.46-1.39-3.71-2.06
				c-0.82-0.43-1.64-0.85-2.47-1.26c0.91-1.17,1.56-2.58,1.82-4.15c0.84-5.02-2.54-9.77-7.56-10.62c-5.02-0.84-9.77,2.54-10.62,7.56
				c-0.04,0.22-0.07,0.45-0.09,0.67c-0.86-0.26-1.72-0.51-2.58-0.75c-1.36-0.38-2.73-0.73-4.11-1.05c-0.97-0.23-1.95-0.44-2.94-0.65
				c-1.38-0.28-2.77-0.54-4.17-0.77c-1.11-0.18-2.23-0.35-3.36-0.5c-1.4-0.18-2.8-0.34-4.21-0.47c-1.13-0.1-2.26-0.19-3.4-0.26
				l0.65,2.26c0.83,0.06,1.67,0.12,2.5,0.2l-0.69,6.06L190.39,70.7L190.39,70.7z M205.09,70.36l0.83-3.23
				c6.81,1.9,13.32,4.51,19.46,7.74l-1.61,2.92C217.87,74.69,211.62,72.19,205.09,70.36L205.09,70.36z M219.24,69.57
				c2.29,0.15,4.47-0.56,6.19-1.88c1.03,0.5,2.05,1.02,3.06,1.55L226.41,73C224.07,71.77,221.68,70.62,219.24,69.57L219.24,69.57z
				 M200.98,69.31c-0.71-0.17-1.43-0.32-2.15-0.47l1.79-9.6c0.94,0.19,1.87,0.4,2.79,0.62L200.98,69.31L200.98,69.31z M213.94,67.47
				c-2.45-0.89-4.95-1.7-7.49-2.4l1.07-4.16c1.08,0.3,2.15,0.61,3.21,0.95C211.08,64.06,212.24,66.06,213.94,67.47L213.94,67.47z
				 M219.12,64.55c-2.31-0.39-3.87-2.57-3.48-4.88c0.39-2.31,2.57-3.87,4.88-3.48c2.31,0.39,3.87,2.57,3.48,4.88
				C223.62,63.39,221.43,64.94,219.12,64.55L219.12,64.55z M196.44,58.47l-1.79,9.6c-0.84-0.14-1.68-0.26-2.52-0.37l1.1-9.7
				C194.31,58.14,195.38,58.29,196.44,58.47L196.44,58.47z M227.47,79.84l4.73-8.54c0.93,0.54,1.86,1.1,2.77,1.67l-5.32,8.18
				C228.93,80.71,228.2,80.27,227.47,79.84L227.47,79.84z M233.21,83.47l5.32-8.18c0.79,0.54,1.57,1.08,2.34,1.64l-5.85,7.81
				C234.42,84.31,233.81,83.88,233.21,83.47z"/>
			<path class="st9" d="M132.38,75.21c6.35-3.41,13.12-6.14,20.2-8.11l0.83,3.23c-6.8,1.89-13.29,4.52-19.39,7.78L132.38,75.21
				L132.38,75.21z M119.32,91.97c13.47-11.42,30.25-19.05,48.7-21.27l2.12-7.35l-0.66-5.84c0.8-0.07,1.6-0.14,2.4-0.19l0.65-2.26
				c-1.1,0.07-2.2,0.15-3.3,0.25c-1.41,0.13-2.82,0.29-4.21,0.47c-1,0.13-1.99,0.28-2.98,0.43c-1.4,0.22-2.79,0.47-4.17,0.75
				c-1.11,0.22-2.22,0.46-3.32,0.72c-1.38,0.32-2.75,0.67-4.11,1.05c-0.98,0.27-1.96,0.56-2.93,0.85c-0.02-0.18-0.04-0.35-0.06-0.53
				c-0.75-5.04-5.44-8.51-10.47-7.76c-5.04,0.75-8.51,5.44-7.76,10.48c0.25,1.66,0.92,3.15,1.89,4.37c-1,0.5-1.99,1.01-2.97,1.54
				c-1.25,0.67-2.48,1.37-3.69,2.08c-0.86,0.51-1.72,1.03-2.57,1.57c-1.2,0.75-2.38,1.53-3.55,2.33c-0.93,0.64-1.86,1.29-2.77,1.96
				c-1.14,0.84-2.27,1.69-3.37,2.57c-2.14,1.7-4.22,3.48-6.22,5.34l1.94,1.22c1.82-1.66,3.69-3.26,5.63-4.8l5.91,7.76
				c-1,0.8-1.99,1.62-2.96,2.46L119.32,91.97L119.32,91.97z M144.12,67.59c2.6-0.96,5.24-1.81,7.93-2.56l-1.06-4.16
				c-1.2,0.33-2.38,0.68-3.56,1.05C147.05,64.18,145.86,66.19,144.12,67.59L144.12,67.59z M157.51,69.29l-2.42-9.46
				c1.05-0.24,2.1-0.47,3.16-0.69l1.74,9.6C159.17,68.92,158.34,69.1,157.51,69.29L157.51,69.29z M164.18,68l-1.74-9.6
				c0.94-0.15,1.88-0.29,2.83-0.41l1.09,9.7C165.63,67.78,164.9,67.88,164.18,68L164.18,68z M132.79,67.78
				c-1.2,0.59-2.39,1.2-3.56,1.83l2.1,3.74c2.52-1.36,5.11-2.61,7.76-3.75C136.76,69.8,134.54,69.1,132.79,67.78L132.79,67.78z
				 M142.52,59.79c0.35,2.32-1.25,4.47-3.57,4.82c-2.32,0.34-4.47-1.25-4.82-3.57c-0.35-2.32,1.25-4.47,3.57-4.82
				C140.02,55.88,142.18,57.48,142.52,59.79L142.52,59.79z M125.53,71.7l4.79,8.51c-0.63,0.38-1.26,0.76-1.88,1.15l-5.35-8.16
				C123.9,72.68,124.71,72.18,125.53,71.7L125.53,71.7z M119.54,75.51l5.35,8.16c-0.7,0.48-1.39,0.97-2.08,1.47l-5.91-7.77
				C117.77,76.75,118.65,76.12,119.54,75.51z"/>
		</g>
		<g>
			<path class="st10" d="M92.52,195.57l-1.05-2.91c-2.05-6-3.5-12.28-4.28-18.76l-3.34-0.96l0.09,0.75l-9.67,1.33
				c-0.19-1.65-0.35-3.31-0.46-4.98l-2.26-0.66c0.12,2,0.3,3.98,0.53,5.94c0.16,1.41,0.35,2.81,0.57,4.2c0.16,1,0.33,1.98,0.51,2.97
				c0.26,1.39,0.54,2.78,0.85,4.15c0.25,1.11,0.52,2.21,0.8,3.3c0.36,1.37,0.74,2.73,1.15,4.08c0.28,0.92,0.57,1.83,0.87,2.73
				c-4.85,0.94-8.12,5.57-7.34,10.49c0.79,5.03,5.52,8.46,10.54,7.66c1.46-0.23,2.78-0.79,3.9-1.59c0.45,0.84,0.9,1.67,1.37,2.49
				c0.69,1.23,1.41,2.44,2.16,3.64c0.53,0.86,1.07,1.7,1.62,2.54c0.78,1.18,1.58,2.35,2.4,3.49c0.66,0.92,1.33,1.83,2.02,2.73
				c0.86,1.12,1.74,2.23,2.64,3.32c1.26,1.51,2.55,2.98,3.88,4.42l1.22-1.94c-1.15-1.26-2.27-2.54-3.36-3.86l7.63-6.08
				c0.38,0.46,0.77,0.91,1.16,1.36l1.79-2.83C101.71,214.62,96.28,205.5,92.52,195.57z M75.32,182.04
				c-0.17-0.93-0.33-1.87-0.48-2.82l9.67-1.33c0.12,0.73,0.24,1.45,0.37,2.17L75.32,182.04z M76.18,186.19l9.56-1.97
				c0.19,0.83,0.39,1.65,0.6,2.47l-9.4,2.65C76.67,188.3,76.42,187.25,76.18,186.19z M79.26,209.98c-2.32,0.37-4.49-1.2-4.85-3.52
				c-0.37-2.31,1.2-4.48,3.52-4.85c2.31-0.37,4.48,1.21,4.85,3.52C83.15,207.45,81.57,209.62,79.26,209.98z M79.11,196.59
				c-0.35-1.05-0.69-2.1-1.02-3.17l4.13-1.16c0.66,2.16,1.39,4.29,2.18,6.38C82.93,197.44,81.08,196.7,79.11,196.59z M84.28,191.68
				l3.21-0.91c2.03,6.65,4.76,12.99,8.11,18.93l-2.87,1.7C89.24,205.21,86.39,198.6,84.28,191.68z M87.2,214.67
				c-0.54-0.96-1.07-1.93-1.58-2.9c1.23-1.46,2.01-3.28,2.16-5.25c0.98,2.03,2.01,4.02,3.11,5.97L87.2,214.67z M90.9,220.73
				c-0.52-0.8-1.03-1.6-1.54-2.41l8.4-4.97c0.39,0.62,0.79,1.24,1.19,1.86L90.9,220.73z M95.23,226.82
				c-0.65-0.85-1.29-1.72-1.92-2.6l8.04-5.52c0.5,0.69,1.01,1.37,1.52,2.05L95.23,226.82z"/>
			<g>
				<path class="st11" d="M91.01,175.11c0,0,0.41,4.73,2.56,12.07c0.97,3.31,2.27,7.18,4.09,11.3c2.86,6.49,6.95,13.65,12.78,20.69
					l1.12-1.7c0,0-15.19-17.09-18.5-41.77L91.01,175.11z"/>
				<path class="st10" d="M114.34,183.98l0.75,2.14l-17.7,6.5c0,0-0.68-1.43-0.95-2.73L114.34,183.98z"/>
			</g>
			<path class="st11" d="M113.92,109.08c0,0,2.35-2.82,3.95-4.45l-4.99-7.89l7.89,4.99c0,0,3.08-2.93,4.45-3.95L99.86,81.74
				c0,0-1.55,0.32-1.98,1.98L113.92,109.08z"/>
			<path class="st11" d="M91.01,150.31c0,0,0.41-4.73,2.56-12.07c0.97-3.31,2.27-7.18,4.09-11.3c2.86-6.49,6.95-13.65,12.78-20.69
				l1.12,1.7c0,0-15.19,17.09-18.5,41.77L91.01,150.31z"/>
			<path class="st10" d="M114.34,141.43l0.75-2.14l-17.7-6.5c0,0-0.68,1.43-0.95,2.73L114.34,141.43z"/>
			<path class="st11" d="M153.91,99.67l-5.29-13.2c-20.63,8.28-37.12,24.69-45.5,45.27l13.17,5.36
				C123.22,120.09,136.86,106.52,153.91,99.67L153.91,99.67z M143.98,91.93c2.43,0,4.4,1.97,4.4,4.4c0,2.43-1.97,4.4-4.4,4.4
				c-2.43,0-4.4-1.97-4.4-4.4C139.57,93.9,141.55,91.93,143.98,91.93L143.98,91.93z M134.4,98.43c2.43,0,4.4,1.97,4.4,4.4
				c0,2.43-1.97,4.4-4.4,4.4s-4.4-1.97-4.4-4.4C130,100.4,131.97,98.43,134.4,98.43L134.4,98.43z M121.61,109.79
				c0-2.43,1.97-4.4,4.4-4.4c2.43,0,4.4,1.97,4.4,4.4c0,2.43-1.97,4.4-4.4,4.4C123.58,114.19,121.61,112.22,121.61,109.79
				L121.61,109.79z M118.74,113.58c2.43,0,4.4,1.97,4.4,4.4s-1.97,4.4-4.4,4.4s-4.4-1.97-4.4-4.4S116.31,113.58,118.74,113.58
				L118.74,113.58z M108.51,127.09c0-2.43,1.97-4.4,4.4-4.4s4.4,1.97,4.4,4.4c0,2.43-1.97,4.4-4.4,4.4S108.51,129.52,108.51,127.09z
				"/>
			<path class="st10" d="M106.66,100c-0.99,1.14-1.95,2.31-2.89,3.5l-7.81-5.85c1.68-2.15,3.44-4.23,5.28-6.23l-1.23-1.94
				c-2.03,2.2-3.97,4.48-5.82,6.84c-0.87,1.11-1.72,2.25-2.54,3.39c-0.59,0.82-1.17,1.64-1.73,2.47c-0.79,1.17-1.56,2.35-2.31,3.55
				c-0.6,0.96-1.18,1.93-1.75,2.91c-0.71,1.22-1.4,2.46-2.06,3.71c-0.27,0.5-0.53,1.01-0.79,1.51c-1.21-0.99-2.7-1.68-4.36-1.94
				c-5.03-0.8-9.75,2.63-10.55,7.66c-0.8,5.03,2.63,9.75,7.66,10.55c0.19,0.03,0.38,0.05,0.57,0.07l-0.35,1.14
				c-0.41,1.35-0.79,2.71-1.15,4.08c-0.25,0.97-0.49,1.95-0.72,2.93c-0.32,1.37-0.61,2.75-0.87,4.15c-0.21,1.11-0.41,2.22-0.58,3.34
				c-0.22,1.39-0.41,2.79-0.58,4.2c-0.23,1.99-0.41,3.99-0.53,6l2.26-0.65c0.11-1.69,0.27-3.38,0.46-5.04l9.67,1.33l-0.09,0.81
				l3.34-0.96c0.74-6.16,2.09-12.14,3.97-17.86l1.02-2.92c3.78-10.28,9.32-19.71,16.27-27.92L106.66,100z M85.74,113.42l3.75,2.08
				c-1.11,2.11-2.15,4.26-3.12,6.46c0.25-2.35-0.42-4.61-1.74-6.39C84.99,114.85,85.36,114.13,85.74,113.42z M84.4,126.79
				c-0.79,2.07-1.51,4.18-2.16,6.32l-4.13-1.17c0.18-0.61,0.37-1.21,0.57-1.82C80.95,129.76,82.98,128.55,84.4,126.79z
				 M73.02,120.36c0.36-2.32,2.53-3.89,4.85-3.53c2.31,0.37,3.89,2.54,3.52,4.85c-0.37,2.32-2.54,3.89-4.85,3.53
				C74.23,124.84,72.65,122.67,73.02,120.36z M84.52,147.48l-9.67-1.34c0.17-1.06,0.35-2.13,0.55-3.19l9.55,2.02
				C84.8,145.8,84.65,146.64,84.52,147.48z M85.82,140.82l-9.55-2.02c0.22-0.93,0.45-1.85,0.69-2.78l9.39,2.66
				C86.17,139.39,85.99,140.1,85.82,140.82z M87.5,134.6l-3.21-0.91c1.83-5.98,4.21-11.72,7.07-17.16l2.92,1.62
				C91.53,123.36,89.26,128.87,87.5,134.6z M96.33,114.44l-8.54-4.73c0.55-0.93,1.1-1.86,1.67-2.77l8.19,5.31
				C97.2,112.98,96.76,113.7,96.33,114.44z M99.96,108.7l-8.18-5.32c0.53-0.79,1.08-1.57,1.64-2.34l7.8,5.85
				C100.8,107.49,100.37,108.09,99.96,108.7z"/>
		</g>
		<g>
			<path class="st7" d="M184.86,268.21l2.88-9.98l0.96-3.31l1.2-4.14l0.59-2.03l1.35-4.69l1.6,0.07c-0.89-0.74-1.4-1.82-1.4-2.99
				c0-2.6,1.94-2.95,2.17-3.75c0.22,0.48,0.28,1.02,0.15,1.54c-0.37,1.49-1.14,0.83-1.14,2.21c0,3.6,3.38,2.61,5.3,0.79
				c3.96-3.79,3-10.38-1.89-12.87c-5.27-2.69-11.59,1.14-11.59,7.11c0,0.35,0.02,0.7,0.07,1.05l-5.89,20.41l-5.88-20.41
				c0.33-2.62-0.58-5.1-2.43-6.84c-1.43-1.35-3.36-2.18-5.48-2.18c-6.22,0-10.12,6.92-6.74,12.24c2.02,3.19,6.52,4.79,6.52,0.71
				c0-1.22-0.83-0.95-1.14-2.21c-0.13-0.52-0.07-1.06,0.15-1.54c0.23,0.81,1.89,0.98,2.15,3.31c0.15,1.31-0.37,2.59-1.38,3.42
				l1.6-0.07l1.35,4.69l0.49,1.7c0,0,0,0-0.01,0l0.1,0.34l1.2,4.14l0.96,3.31l2.88,9.98l0.65,2.25l2.93,10.16
				c1.35,0.59,2.81,0.59,4.16,0l2.93-10.16L184.86,268.21z"/>
			<path class="st8" d="M258.41,182.03c1.83-1.91,2.82-5.3-0.79-5.3c-1.38,0-0.71,0.77-2.21,1.14c-0.52,0.13-1.06,0.07-1.54-0.15
				c0.8-0.23,1.15-2.17,3.75-2.17c1.16,0,2.25,0.51,2.99,1.4l-0.07-1.6l4.69-1.35l2.03-0.59l4.14-1.2l3.31-0.96l9.98-2.88l2.25-0.65
				l10.16-2.93c0.59-1.35,0.59-2.81,0-4.16l-10.16-2.93l-2.25-0.65l-9.98-2.88l-3.31-0.96l-4.14-1.2l-0.34-0.1c0,0,0,0,0,0.01
				l-1.7-0.49l-4.69-1.35l0.07-1.6c-0.84,1-2.11,1.52-3.42,1.38c-2.34-0.26-2.5-1.91-3.31-2.15c0.48-0.22,1.02-0.27,1.54-0.15
				c1.26,0.31,0.99,1.14,2.21,1.14c4.08,0,2.48-4.5-0.71-6.52c-5.32-3.38-12.24,0.52-12.24,6.74c0,2.12,0.83,4.05,2.18,5.48
				c1.75,1.85,4.23,2.76,6.84,2.43l20.41,5.88l-20.41,5.89c-0.34-0.04-0.69-0.07-1.05-0.07c-5.97,0-9.8,6.33-7.11,11.59
				C248.03,185.03,254.62,185.99,258.41,182.03z"/>
			<path class="st9" d="M187.75,67.2l-2.88-9.98l-0.65-2.25l-2.93-10.16c-1.35-0.59-2.81-0.59-4.16,0l-2.93,10.16l-0.65,2.25
				l-2.88,9.98l-0.96,3.31l-1.2,4.14l-0.1,0.34c0,0,0,0,0.01,0l-0.49,1.7l-1.35,4.69l-1.6-0.07c1,0.84,1.52,2.11,1.38,3.42
				c-0.26,2.34-1.91,2.5-2.15,3.31c-0.22-0.48-0.27-1.02-0.15-1.54c0.31-1.26,1.14-0.99,1.14-2.21c0-4.08-4.5-2.48-6.52,0.71
				c-3.37,5.32,0.52,12.24,6.74,12.24c2.12,0,4.05-0.83,5.48-2.18c1.85-1.75,2.75-4.23,2.43-6.84l5.88-20.41l5.89,20.41
				c-0.04,0.34-0.07,0.69-0.07,1.05c0,5.97,6.33,9.8,11.59,7.11c4.89-2.5,5.85-9.09,1.89-12.87c-1.91-1.83-5.3-2.82-5.3,0.79
				c0,1.38,0.77,0.71,1.14,2.21c0.13,0.52,0.07,1.06-0.15,1.54c-0.23-0.8-2.17-1.15-2.17-3.75c0-1.16,0.51-2.25,1.4-2.99l-1.6,0.07
				l-1.35-4.69l-0.59-2.03l-1.2-4.14L187.75,67.2z"/>
			<path class="st11" d="M61.3,160.64c-0.59,1.35-0.59,2.81,0,4.16l36.56,10.56l-0.07,1.6c0.74-0.89,1.82-1.4,2.99-1.4
				c2.6,0,2.95,1.94,3.75,2.17c-0.48,0.22-1.02,0.28-1.54,0.15c-1.49-0.37-0.83-1.14-2.21-1.14c-3.6,0-2.61,3.38-0.79,5.3
				c3.79,3.96,10.38,3,12.87-1.89c2.69-5.27-1.14-11.59-7.11-11.59c-0.35,0-0.7,0.02-1.05,0.07l-20.41-5.89l20.41-5.88
				c2.62,0.33,5.1-0.58,6.84-2.43c1.35-1.43,2.18-3.36,2.18-5.48c0-6.22-6.92-10.12-12.24-6.74c-3.19,2.02-4.79,6.52-0.71,6.52
				c1.22,0,0.95-0.83,2.21-1.14c0.52-0.13,1.06-0.07,1.54,0.15c-0.81,0.23-0.98,1.89-3.31,2.15c-1.31,0.15-2.59-0.37-3.42-1.38
				l0.07,1.6l-6.39,1.84c0,0,0,0,0-0.01L61.3,160.64z"/>
			<g>
				<circle class="st11" cx="179.2" cy="28.07" r="4.32"/>
				<g>
					<path class="st10" d="M179.2,39.82c-6.48,0-11.75-5.27-11.75-11.75c0-6.48,5.27-11.75,11.75-11.75
						c6.48,0,11.75,5.27,11.75,11.75C190.95,34.55,185.68,39.82,179.2,39.82z M179.2,21.33c-3.72,0-6.75,3.03-6.75,6.75
						s3.03,6.75,6.75,6.75s6.75-3.03,6.75-6.75S182.92,21.33,179.2,21.33z"/>
				</g>
			</g>
			<g>
				<path class="st12" d="M179.2,222.52c-32.98,0-59.8-26.83-59.8-59.8c0-32.98,26.83-59.8,59.8-59.8s59.8,26.83,59.8,59.8
					C239,195.69,212.18,222.52,179.2,222.52z M179.2,105.91c-31.32,0-56.8,25.48-56.8,56.8c0,31.32,25.48,56.8,56.8,56.8
					s56.8-25.48,56.8-56.8C236,131.39,210.52,105.91,179.2,105.91z"/>
			</g>
			<g>
				<g>
					<polygon class="st2" points="214.01,175.36 214.01,201.7 144.39,201.7 144.39,190.19 155.81,190.19 155.81,181.46 
						168.78,181.46 168.78,175.36 					"/>
					<path class="st3" d="M214.26,201.95h-70.12v-12.01h11.42v-8.73h12.97v-6.1h45.73V201.95z M144.64,201.45h69.12v-25.84h-44.73
						v6.1h-12.97v8.73h-11.42V201.45z"/>
				</g>
				<g>
					<polygon class="st2" points="208.59,145.03 208.59,175.34 193.55,175.34 193.55,158.88 159.35,158.88 159.35,145.03 					"/>
					<path class="st3" d="M208.84,175.59H193.3v-16.46h-34.2v-14.35h49.74V175.59z M193.8,175.09h14.54v-29.81H159.6v13.35h34.2
						V175.09z"/>
				</g>
				<g>
					<polygon class="st2" points="206.58,137.13 159.31,137.13 166.67,120.87 199.21,120.87 					"/>
					<path class="st3" d="M206.98,137.41h-48.07l7.62-16.82h32.82L206.98,137.41z M159.7,136.85h46.48l-7.11-15.7h-32.26
						L159.7,136.85z"/>
				</g>
				<g>
					<rect x="153.54" y="137.02" class="st2" width="60.48" height="8.03"/>
					<path class="st3" d="M214.25,145.21H153.3v-8.36h60.95V145.21z M153.77,144.88h60v-7.7h-60V144.88z"/>
				</g>
				<polygon points="200.03,146.99 200.03,158.88 193.93,158.88 193.93,175.37 185.01,175.37 185.01,158.88 169.97,158.88 
					169.97,146.99 				"/>
				<g>
					<rect x="166.67" y="113.65" width="6.59" height="7.11"/>
					<rect x="192.6" y="113.65" width="6.59" height="7.11"/>
					<rect x="174.99" y="113.65" width="6.59" height="7.11"/>
					<rect x="183.8" y="113.65" width="6.59" height="7.11"/>
				</g>
				<g>
					<g>
						<polygon class="st4" points="186.76,136.83 180.38,129.01 186.77,121.15 188.45,121.15 182.11,129.01 188.45,136.82 						"/>
					</g>
					<g>
						<polygon class="st5" points="179.16,136.85 177.44,136.85 183.8,129.01 177.44,121.15 179.15,121.15 185.53,129.01 						"/>
					</g>
				</g>
				<rect x="144.39" y="197.91" width="69.62" height="3.79"/>
			</g>
		</g>
	</g>
</g>
<g id="Capa_3">
</g>
<g id="Logo_solo">
</g>
</svg>
